PathFileType	4	(X/Y/Z)	C:\Users\86182\Documents\cortex\Trimmed_M3_H15.trc
DataRate	CameraRate	NumFrames	NumMarkers	Units	OrigDataRate	OrigDataStartFrame	OrigNumFrames
100.00	100.00	       127	2	mm	100.00	181	       901
Frame#	Time	gripper			box			
		X1	Y1	Z1	X2	Y2	Z2	

181	1.800	268.51141	172.50961	206.95793	269.61597	169.58334	71.12740	
182	1.810	268.50793	172.51642	207.39824	269.63962	169.59218	71.56123	
183	1.820	268.49738	172.52666	207.83517	269.67377	169.59541	71.97459	
184	1.830	268.47934	172.54137	208.26973	269.73102	169.58348	72.35880	
185	1.840	268.45422	172.56035	208.70020	269.82584	169.54813	72.70694	
186	1.850	268.42413	172.58177	209.12402	269.96909	169.48502	73.01506	
187	1.860	268.39240	172.60320	209.54169	270.15915	169.39568	73.28706	
188	1.870	268.36261	172.62267	209.95654	270.37009	169.29221	73.54143	
189	1.880	268.33719	172.63924	210.37149	270.54050	169.20573	73.81919	
190	1.890	268.31635	172.65219	210.78728	270.58752	169.18169	74.17699	
191	1.900	268.29901	172.65979	211.20340	270.47119	169.24437	74.64542	
192	1.910	268.28470	172.65894	211.61996	270.23901	169.36981	75.19859	
193	1.920	268.27438	172.64694	212.03859	269.97968	169.50929	75.78277	
194	1.930	268.26956	172.62387	212.46173	269.75708	169.62515	76.35681	
195	1.940	268.27063	172.59373	212.89040	269.59790	169.70006	76.90031	
196	1.950	268.27591	172.56270	213.32320	269.50452	169.73293	77.40789	
197	1.960	268.28241	172.53560	213.75832	269.46536	169.73384	77.88431	
198	1.970	268.28802	172.51393	214.19542	269.46146	169.71742	78.33927	
199	1.980	268.29150	172.49753	214.63434	269.47281	169.69580	78.78152	
200	1.990	268.28998	172.48723	215.07309	269.48444	169.67561	79.21478	
201	2.000	268.27921	172.48427	215.50850	269.48831	169.66034	79.63916	
202	2.010	268.25745	172.48824	215.93843	269.48083	169.65329	80.05588	
203	2.020	268.22708	172.49686	216.36275	269.45950	169.65741	80.46914	
204	2.030	268.19247	172.50740	216.78302	269.42276	169.67245	80.88316	
205	2.040	268.15723	172.51759	217.20155	269.37143	169.69405	81.29835	
206	2.050	268.12228	172.52625	217.61975	269.30853	169.71591	81.71149	
207	2.060	268.08691	172.53322	218.03690	269.23874	169.73274	82.12028	
208	2.070	268.05124	172.53860	218.45213	269.16785	169.74200	82.52693	
209	2.080	268.01794	172.54224	218.86743	269.10199	169.74403	82.93652	
210	2.090	267.99103	172.54367	219.28656	269.04657	169.74077	83.35259	
211	2.100	267.97263	172.54227	219.71150	269.00568	169.73448	83.77516	
212	2.110	267.96143	172.53799	220.14159	268.98187	169.72717	84.20250	
213	2.120	267.95477	172.53271	220.57573	268.97458	169.72017	84.63418	
214	2.130	267.95157	172.52913	221.01421	268.98047	169.71429	85.07163	
215	2.140	267.95337	172.52834	221.45795	268.99570	169.71072	85.51578	
216	2.150	267.96259	172.52902	221.90649	269.01715	169.71135	85.96460	
217	2.160	267.97980	172.52986	222.35686	269.04086	169.71841	86.41389	
218	2.170	268.00204	172.53134	222.80499	269.06116	169.73315	86.85986	
219	2.180	268.02524	172.53458	223.24829	269.07379	169.75438	87.30044	
220	2.190	268.04791	172.53857	223.68582	269.07892	169.77827	87.73496	
221	2.200	268.07065	172.54036	224.11658	269.07944	169.80098	88.16412	
222	2.210	268.09225	172.53810	224.53961	269.07629	169.82130	88.58968	
223	2.220	268.10956	172.53360	224.95589	269.06674	169.84108	89.01277	
224	2.230	268.12085	172.53047	225.36864	269.04831	169.86256	89.43288	
225	2.240	268.12741	172.53075	225.78148	269.02243	169.88646	89.84980	
226	2.250	268.13211	172.53387	226.19647	268.99298	169.91190	90.26635	
227	2.260	268.13672	172.53806	226.61409	268.96307	169.93770	90.68809	
228	2.270	268.14114	172.54219	227.03424	268.93439	169.96301	91.11996	
229	2.280	268.14456	172.54674	227.45700	268.90936	169.98674	91.56178	
230	2.290	268.14639	172.55286	227.88321	268.89243	170.00661	92.00694	
231	2.300	268.14603	172.56105	228.31454	268.89072	170.01822	92.44601	
232	2.310	268.14301	172.57059	228.75214	268.91483	170.01485	92.87077	
233	2.320	268.13791	172.58029	229.19482	268.97849	169.98854	93.27395	
234	2.330	268.13223	172.59018	229.63956	269.09668	169.93196	93.64523	
235	2.340	268.12601	172.60207	230.08301	269.28162	169.83977	93.97110	
236	2.350	268.11746	172.61809	230.52296	269.53543	169.71094	94.24398	
237	2.360	268.10568	172.63853	230.95821	269.84024	169.55379	94.47430	
238	2.370	268.09171	172.66197	231.38829	270.14542	169.39511	94.69791	
239	2.380	268.07645	172.68715	231.81332	270.37613	169.27742	94.96571	
240	2.390	268.06052	172.71397	232.23383	270.48935	169.22627	95.30484	
241	2.400	268.04510	172.74223	232.65059	270.50787	169.22807	95.69756	
242	2.410	268.03207	172.77022	233.06482	270.46494	169.26123	96.11983	
243	2.420	268.02277	172.79515	233.47783	270.35657	169.32603	96.57568	
244	2.430	268.01791	172.81465	233.89096	270.19281	169.41794	97.06647	
245	2.440	268.01828	172.82750	234.30618	270.04816	169.49820	97.55585	
246	2.450	268.02472	172.83345	234.72562	270.01587	169.51714	97.99236	
247	2.460	268.03830	172.83295	235.15036	270.13867	169.45183	98.34929	
248	2.470	268.06009	172.82713	235.58058	270.38791	169.31837	98.64046	
249	2.480	268.08957	172.81850	236.01714	270.68811	169.15915	98.91029	
250	2.490	268.12360	172.81052	236.46109	270.98215	169.00706	99.19454	
251	2.500	268.15808	172.80670	236.91200	271.26309	168.86699	99.49692	
252	2.510	268.18982	172.80919	237.36778	271.50757	168.75163	99.82741	
253	2.520	268.21643	172.81888	237.82584	271.61444	168.71558	100.24190	
254	2.530	268.23550	172.83549	238.28334	271.47086	168.81989	100.80470	
255	2.540	268.24527	172.85744	238.73740	271.07446	169.06506	101.51469	
256	2.550	268.24573	172.88217	239.18564	270.54367	169.38399	102.29778	
257	2.560	268.23795	172.90811	239.62677	270.01376	169.69879	103.06837	
258	2.570	268.22281	172.93562	240.06097	269.56467	169.96288	103.77339	
259	2.580	268.20126	172.96530	240.48953	269.22507	170.16078	104.39320	
260	2.590	268.17599	172.99580	240.91360	268.99490	170.29523	104.93172	
261	2.600	268.15164	173.02385	241.33353	268.85782	170.37726	105.40782	
262	2.610	268.13248	173.04703	241.75046	268.78995	170.41963	105.84479	
263	2.620	268.12009	173.06522	242.16728	268.76736	170.43367	106.26022	
264	2.630	268.11429	173.07898	242.58646	268.77145	170.42853	106.66282	
265	2.640	268.11435	173.08762	243.00835	268.78983	170.41187	107.05792	
266	2.650	268.11926	173.09006	243.43277	268.81430	170.39072	107.45329	
267	2.660	268.12793	173.08644	243.86053	268.84012	170.37042	107.85768	
268	2.670	268.14081	173.07793	244.29230	268.86667	170.35284	108.27539	
269	2.680	268.15933	173.06537	244.72737	268.89651	170.33652	108.70402	
270	2.690	268.18387	173.04892	245.16388	268.93106	170.31963	109.13757	
271	2.700	268.21255	173.02905	245.59938	268.96704	170.30258	109.57179	
272	2.710	268.24234	173.00806	246.03204	268.99890	170.28749	110.00635	
273	2.720	268.27054	172.98959	246.46161	269.02338	170.27580	110.44193	
274	2.730	268.29453	172.97653	246.88818	269.04004	170.26811	110.87620	
275	2.740	268.31134	172.96979	247.31082	269.04755	170.26556	111.30450	
276	2.750	268.31842	172.96852	247.72850	269.04315	170.27055	111.72476	
277	2.760	268.31430	172.97148	248.14233	269.02673	170.28560	112.13950	
278	2.770	268.29822	172.97830	248.55505	269.00272	170.31140	112.55267	
279	2.780	268.27032	172.98918	248.96848	268.97620	170.34492	112.96651	
280	2.790	268.23193	173.00323	249.38300	268.94696	170.37997	113.38104	
281	2.800	268.18530	173.01767	249.79831	268.90802	170.41043	113.79591	
282	2.810	268.13394	173.02867	250.21417	268.85037	170.43297	114.21199	
283	2.820	268.08328	173.03328	250.63107	268.76767	170.44598	114.63194	
284	2.830	268.03964	173.03130	251.05107	268.65561	170.44685	115.06004	
285	2.840	268.00748	173.02547	251.47598	268.50974	170.43208	115.50092	
286	2.850	267.98755	173.01898	251.90503	268.32700	170.40062	115.95715	
287	2.860	267.97791	173.01297	252.33618	268.11218	170.35628	116.42700	
288	2.870	267.97629	173.00652	252.76941	267.88901	170.30782	116.90396	
289	2.880	267.98056	172.99927	253.20656	267.71024	170.26961	117.37746	
290	2.890	267.98801	172.99287	253.64836	267.64536	170.25967	117.83529	
291	2.900	267.99612	172.98889	254.09311	267.72653	170.28725	118.27185	
292	2.910	268.00415	172.98682	254.53770	267.91391	170.34285	118.69267	
293	2.920	268.01184	172.98521	254.98010	268.13593	170.40749	119.10666	
294	2.930	268.01733	172.98421	255.42072	268.34088	170.46797	119.51900	
295	2.940	268.01834	172.98578	255.86032	268.50320	170.52065	119.93275	
296	2.950	268.01324	172.99188	256.29703	268.61398	170.56628	120.35020	
297	2.960	268.00110	173.00223	256.72791	268.67645	170.60504	120.77077	
298	2.970	267.98260	173.01440	257.15326	268.70145	170.63503	121.19077	
299	2.980	267.96060	173.02539	257.57626	268.70074	170.65485	121.60707	
300	2.990	267.93762	173.03288	257.99893	268.68237	170.66656	122.02053	
301	3.000	267.91422	173.03650	258.42078	268.65115	170.67455	122.43447	
302	3.010	267.89096	173.03799	258.84058	268.61221	170.68134	122.85086	
303	3.020	267.87036	173.03957	259.25836	268.57227	170.68637	123.26915	
304	3.030	267.85526	173.04153	259.67609	268.53677	170.68851	123.68861	
305	3.040	267.84717	173.04196	260.09650	268.50766	170.68823	124.11044	
306	3.050	267.84683	173.03877	260.52136	268.48419	170.68701	124.53703	
307	3.060	267.85339	173.03203	260.95044	268.46576	170.68587	124.96943	
